<mxfile host="app.diagrams.net" modified="2023-08-25T13:22:24.506Z" agent="5.0 (Macintosh; Intel Mac OS X 10_15_7) AppleWebKit/537.36 (KHTML, like Gecko) Chrome/111.0.0.0 Safari/537.36" etag="55STf1HRRs5qtvuDBZzx" version="20.4.0" type="github">
  <diagram id="C5RBs43oDa-KdzZeNtuy" name="Page-1">
    <mxGraphModel dx="1845" dy="688" grid="1" gridSize="10" guides="1" tooltips="1" connect="1" arrows="1" fold="1" page="1" pageScale="1" pageWidth="827" pageHeight="1169" math="0" shadow="0">
      <root>
        <mxCell id="WIyWlLk6GJQsqaUBKTNV-0" />
        <mxCell id="WIyWlLk6GJQsqaUBKTNV-1" parent="WIyWlLk6GJQsqaUBKTNV-0" />
        <mxCell id="WIyWlLk6GJQsqaUBKTNV-2" value="" style="rounded=0;html=1;jettySize=auto;orthogonalLoop=1;fontSize=11;endArrow=block;endFill=0;endSize=8;strokeWidth=1;shadow=0;labelBackgroundColor=none;edgeStyle=orthogonalEdgeStyle;entryX=0.5;entryY=0;entryDx=0;entryDy=0;" parent="WIyWlLk6GJQsqaUBKTNV-1" source="WIyWlLk6GJQsqaUBKTNV-3" target="WIyWlLk6GJQsqaUBKTNV-6" edge="1">
          <mxGeometry relative="1" as="geometry" />
        </mxCell>
        <mxCell id="WIyWlLk6GJQsqaUBKTNV-3" value="App" style="rounded=1;whiteSpace=wrap;html=1;fontSize=12;glass=0;strokeWidth=1;shadow=0;fillColor=#e1d5e7;strokeColor=#9673a6;" parent="WIyWlLk6GJQsqaUBKTNV-1" vertex="1">
          <mxGeometry x="160" y="80" width="120" height="40" as="geometry" />
        </mxCell>
        <mxCell id="-YvK7WObfdjW18Db9y_9-28" value="" style="edgeStyle=orthogonalEdgeStyle;rounded=0;orthogonalLoop=1;jettySize=auto;html=1;" edge="1" parent="WIyWlLk6GJQsqaUBKTNV-1" source="WIyWlLk6GJQsqaUBKTNV-6" target="-YvK7WObfdjW18Db9y_9-18">
          <mxGeometry relative="1" as="geometry" />
        </mxCell>
        <mxCell id="WIyWlLk6GJQsqaUBKTNV-6" value="/" style="rhombus;whiteSpace=wrap;html=1;shadow=0;fontFamily=Helvetica;fontSize=12;align=center;strokeWidth=1;spacing=6;spacingTop=-4;fillColor=#ffe6cc;strokeColor=#d79b00;" parent="WIyWlLk6GJQsqaUBKTNV-1" vertex="1">
          <mxGeometry x="170" y="190" width="100" height="80" as="geometry" />
        </mxCell>
        <mxCell id="-YvK7WObfdjW18Db9y_9-29" value="" style="edgeStyle=orthogonalEdgeStyle;rounded=0;orthogonalLoop=1;jettySize=auto;html=1;" edge="1" parent="WIyWlLk6GJQsqaUBKTNV-1" source="-YvK7WObfdjW18Db9y_9-0" target="-YvK7WObfdjW18Db9y_9-20">
          <mxGeometry relative="1" as="geometry" />
        </mxCell>
        <mxCell id="-YvK7WObfdjW18Db9y_9-0" value="sign up" style="rhombus;whiteSpace=wrap;html=1;shadow=0;fontFamily=Helvetica;fontSize=12;align=center;strokeWidth=1;spacing=6;spacingTop=-4;fillColor=#ffe6cc;strokeColor=#d79b00;" vertex="1" parent="WIyWlLk6GJQsqaUBKTNV-1">
          <mxGeometry x="280" y="190" width="100" height="80" as="geometry" />
        </mxCell>
        <mxCell id="-YvK7WObfdjW18Db9y_9-30" value="" style="edgeStyle=orthogonalEdgeStyle;rounded=0;orthogonalLoop=1;jettySize=auto;html=1;" edge="1" parent="WIyWlLk6GJQsqaUBKTNV-1" source="-YvK7WObfdjW18Db9y_9-1" target="-YvK7WObfdjW18Db9y_9-21">
          <mxGeometry relative="1" as="geometry" />
        </mxCell>
        <mxCell id="-YvK7WObfdjW18Db9y_9-1" value="login" style="rhombus;whiteSpace=wrap;html=1;shadow=0;fontFamily=Helvetica;fontSize=12;align=center;strokeWidth=1;spacing=6;spacingTop=-4;fillColor=#ffe6cc;strokeColor=#d79b00;" vertex="1" parent="WIyWlLk6GJQsqaUBKTNV-1">
          <mxGeometry x="390" y="190" width="100" height="80" as="geometry" />
        </mxCell>
        <mxCell id="-YvK7WObfdjW18Db9y_9-27" value="" style="edgeStyle=orthogonalEdgeStyle;rounded=0;orthogonalLoop=1;jettySize=auto;html=1;" edge="1" parent="WIyWlLk6GJQsqaUBKTNV-1" source="-YvK7WObfdjW18Db9y_9-2" target="-YvK7WObfdjW18Db9y_9-19">
          <mxGeometry relative="1" as="geometry" />
        </mxCell>
        <mxCell id="-YvK7WObfdjW18Db9y_9-2" value="create recipe" style="rhombus;whiteSpace=wrap;html=1;shadow=0;fontFamily=Helvetica;fontSize=12;align=center;strokeWidth=1;spacing=6;spacingTop=-4;fillColor=#ffe6cc;strokeColor=#d79b00;" vertex="1" parent="WIyWlLk6GJQsqaUBKTNV-1">
          <mxGeometry x="60" y="190" width="100" height="80" as="geometry" />
        </mxCell>
        <mxCell id="-YvK7WObfdjW18Db9y_9-31" value="" style="edgeStyle=orthogonalEdgeStyle;rounded=0;orthogonalLoop=1;jettySize=auto;html=1;" edge="1" parent="WIyWlLk6GJQsqaUBKTNV-1" source="-YvK7WObfdjW18Db9y_9-3" target="-YvK7WObfdjW18Db9y_9-22">
          <mxGeometry relative="1" as="geometry" />
        </mxCell>
        <mxCell id="-YvK7WObfdjW18Db9y_9-3" value="edit receipe" style="rhombus;whiteSpace=wrap;html=1;shadow=0;fontFamily=Helvetica;fontSize=12;align=center;strokeWidth=1;spacing=6;spacingTop=-4;fillColor=#ffe6cc;strokeColor=#d79b00;" vertex="1" parent="WIyWlLk6GJQsqaUBKTNV-1">
          <mxGeometry x="500" y="190" width="100" height="80" as="geometry" />
        </mxCell>
        <mxCell id="-YvK7WObfdjW18Db9y_9-23" value="" style="edgeStyle=orthogonalEdgeStyle;rounded=0;orthogonalLoop=1;jettySize=auto;html=1;" edge="1" parent="WIyWlLk6GJQsqaUBKTNV-1" source="-YvK7WObfdjW18Db9y_9-4" target="-YvK7WObfdjW18Db9y_9-17">
          <mxGeometry relative="1" as="geometry" />
        </mxCell>
        <mxCell id="-YvK7WObfdjW18Db9y_9-4" value="recipe" style="rhombus;whiteSpace=wrap;html=1;shadow=0;fontFamily=Helvetica;fontSize=12;align=center;strokeWidth=1;spacing=6;spacingTop=-4;fillColor=#ffe6cc;strokeColor=#d79b00;" vertex="1" parent="WIyWlLk6GJQsqaUBKTNV-1">
          <mxGeometry x="-50" y="190" width="100" height="80" as="geometry" />
        </mxCell>
        <mxCell id="-YvK7WObfdjW18Db9y_9-9" value="" style="endArrow=none;html=1;rounded=0;" edge="1" parent="WIyWlLk6GJQsqaUBKTNV-1">
          <mxGeometry width="50" height="50" relative="1" as="geometry">
            <mxPoint y="160" as="sourcePoint" />
            <mxPoint x="550" y="160" as="targetPoint" />
          </mxGeometry>
        </mxCell>
        <mxCell id="-YvK7WObfdjW18Db9y_9-12" value="" style="rounded=0;html=1;jettySize=auto;orthogonalLoop=1;fontSize=11;endArrow=block;endFill=0;endSize=8;strokeWidth=1;shadow=0;labelBackgroundColor=none;edgeStyle=orthogonalEdgeStyle;entryX=0.5;entryY=0;entryDx=0;entryDy=0;" edge="1" parent="WIyWlLk6GJQsqaUBKTNV-1">
          <mxGeometry relative="1" as="geometry">
            <mxPoint y="160" as="sourcePoint" />
            <mxPoint y="190" as="targetPoint" />
          </mxGeometry>
        </mxCell>
        <mxCell id="-YvK7WObfdjW18Db9y_9-13" value="" style="rounded=0;html=1;jettySize=auto;orthogonalLoop=1;fontSize=11;endArrow=block;endFill=0;endSize=8;strokeWidth=1;shadow=0;labelBackgroundColor=none;edgeStyle=orthogonalEdgeStyle;entryX=0.5;entryY=0;entryDx=0;entryDy=0;" edge="1" parent="WIyWlLk6GJQsqaUBKTNV-1">
          <mxGeometry relative="1" as="geometry">
            <mxPoint x="109.5" y="160" as="sourcePoint" />
            <mxPoint x="109.5" y="190" as="targetPoint" />
          </mxGeometry>
        </mxCell>
        <mxCell id="-YvK7WObfdjW18Db9y_9-14" value="" style="rounded=0;html=1;jettySize=auto;orthogonalLoop=1;fontSize=11;endArrow=block;endFill=0;endSize=8;strokeWidth=1;shadow=0;labelBackgroundColor=none;edgeStyle=orthogonalEdgeStyle;entryX=0.5;entryY=0;entryDx=0;entryDy=0;" edge="1" parent="WIyWlLk6GJQsqaUBKTNV-1">
          <mxGeometry relative="1" as="geometry">
            <mxPoint x="329.5" y="160" as="sourcePoint" />
            <mxPoint x="329.5" y="190" as="targetPoint" />
          </mxGeometry>
        </mxCell>
        <mxCell id="-YvK7WObfdjW18Db9y_9-15" value="" style="rounded=0;html=1;jettySize=auto;orthogonalLoop=1;fontSize=11;endArrow=block;endFill=0;endSize=8;strokeWidth=1;shadow=0;labelBackgroundColor=none;edgeStyle=orthogonalEdgeStyle;entryX=0.5;entryY=0;entryDx=0;entryDy=0;" edge="1" parent="WIyWlLk6GJQsqaUBKTNV-1">
          <mxGeometry relative="1" as="geometry">
            <mxPoint x="440" y="160" as="sourcePoint" />
            <mxPoint x="440" y="190" as="targetPoint" />
          </mxGeometry>
        </mxCell>
        <mxCell id="-YvK7WObfdjW18Db9y_9-16" value="" style="rounded=0;html=1;jettySize=auto;orthogonalLoop=1;fontSize=11;endArrow=block;endFill=0;endSize=8;strokeWidth=1;shadow=0;labelBackgroundColor=none;edgeStyle=orthogonalEdgeStyle;entryX=0.5;entryY=0;entryDx=0;entryDy=0;" edge="1" parent="WIyWlLk6GJQsqaUBKTNV-1">
          <mxGeometry relative="1" as="geometry">
            <mxPoint x="549.5" y="160" as="sourcePoint" />
            <mxPoint x="549.5" y="190" as="targetPoint" />
          </mxGeometry>
        </mxCell>
        <mxCell id="-YvK7WObfdjW18Db9y_9-54" value="" style="edgeStyle=orthogonalEdgeStyle;rounded=0;orthogonalLoop=1;jettySize=auto;html=1;" edge="1" parent="WIyWlLk6GJQsqaUBKTNV-1" source="-YvK7WObfdjW18Db9y_9-17" target="-YvK7WObfdjW18Db9y_9-53">
          <mxGeometry relative="1" as="geometry">
            <Array as="points">
              <mxPoint y="340" />
              <mxPoint y="340" />
            </Array>
          </mxGeometry>
        </mxCell>
        <mxCell id="-YvK7WObfdjW18Db9y_9-17" value="SingleRecipe" style="rounded=1;whiteSpace=wrap;html=1;fontSize=12;glass=0;strokeWidth=1;shadow=0;fillColor=#e1d5e7;strokeColor=#9673a6;" vertex="1" parent="WIyWlLk6GJQsqaUBKTNV-1">
          <mxGeometry x="-40" y="290" width="80" height="30" as="geometry" />
        </mxCell>
        <mxCell id="-YvK7WObfdjW18Db9y_9-67" value="" style="edgeStyle=orthogonalEdgeStyle;rounded=0;orthogonalLoop=1;jettySize=auto;html=1;" edge="1" parent="WIyWlLk6GJQsqaUBKTNV-1" source="-YvK7WObfdjW18Db9y_9-18" target="-YvK7WObfdjW18Db9y_9-57">
          <mxGeometry relative="1" as="geometry" />
        </mxCell>
        <mxCell id="-YvK7WObfdjW18Db9y_9-18" value="homepage" style="rounded=1;whiteSpace=wrap;html=1;fontSize=12;glass=0;strokeWidth=1;shadow=0;fillColor=#e1d5e7;strokeColor=#9673a6;" vertex="1" parent="WIyWlLk6GJQsqaUBKTNV-1">
          <mxGeometry x="180" y="290" width="80" height="30" as="geometry" />
        </mxCell>
        <mxCell id="-YvK7WObfdjW18Db9y_9-44" value="" style="edgeStyle=orthogonalEdgeStyle;rounded=0;orthogonalLoop=1;jettySize=auto;html=1;" edge="1" parent="WIyWlLk6GJQsqaUBKTNV-1" source="-YvK7WObfdjW18Db9y_9-19" target="-YvK7WObfdjW18Db9y_9-43">
          <mxGeometry relative="1" as="geometry" />
        </mxCell>
        <mxCell id="-YvK7WObfdjW18Db9y_9-19" value="CreateRecipe" style="rounded=1;whiteSpace=wrap;html=1;fontSize=12;glass=0;strokeWidth=1;shadow=0;fillColor=#e1d5e7;strokeColor=#9673a6;" vertex="1" parent="WIyWlLk6GJQsqaUBKTNV-1">
          <mxGeometry x="70" y="290" width="80" height="30" as="geometry" />
        </mxCell>
        <mxCell id="-YvK7WObfdjW18Db9y_9-46" value="" style="edgeStyle=orthogonalEdgeStyle;rounded=0;orthogonalLoop=1;jettySize=auto;html=1;" edge="1" parent="WIyWlLk6GJQsqaUBKTNV-1" source="-YvK7WObfdjW18Db9y_9-20" target="-YvK7WObfdjW18Db9y_9-45">
          <mxGeometry relative="1" as="geometry" />
        </mxCell>
        <mxCell id="-YvK7WObfdjW18Db9y_9-20" value="Signup" style="rounded=1;whiteSpace=wrap;html=1;fontSize=12;glass=0;strokeWidth=1;shadow=0;fillColor=#e1d5e7;strokeColor=#9673a6;" vertex="1" parent="WIyWlLk6GJQsqaUBKTNV-1">
          <mxGeometry x="290" y="290" width="80" height="30" as="geometry" />
        </mxCell>
        <mxCell id="-YvK7WObfdjW18Db9y_9-48" value="" style="edgeStyle=orthogonalEdgeStyle;rounded=0;orthogonalLoop=1;jettySize=auto;html=1;" edge="1" parent="WIyWlLk6GJQsqaUBKTNV-1" source="-YvK7WObfdjW18Db9y_9-21" target="-YvK7WObfdjW18Db9y_9-47">
          <mxGeometry relative="1" as="geometry" />
        </mxCell>
        <mxCell id="-YvK7WObfdjW18Db9y_9-21" value="Login" style="rounded=1;whiteSpace=wrap;html=1;fontSize=12;glass=0;strokeWidth=1;shadow=0;fillColor=#e1d5e7;strokeColor=#9673a6;" vertex="1" parent="WIyWlLk6GJQsqaUBKTNV-1">
          <mxGeometry x="400" y="290" width="80" height="30" as="geometry" />
        </mxCell>
        <mxCell id="-YvK7WObfdjW18Db9y_9-50" value="" style="edgeStyle=orthogonalEdgeStyle;rounded=0;orthogonalLoop=1;jettySize=auto;html=1;" edge="1" parent="WIyWlLk6GJQsqaUBKTNV-1" source="-YvK7WObfdjW18Db9y_9-22" target="-YvK7WObfdjW18Db9y_9-49">
          <mxGeometry relative="1" as="geometry" />
        </mxCell>
        <mxCell id="-YvK7WObfdjW18Db9y_9-22" value="EditRecipe" style="rounded=1;whiteSpace=wrap;html=1;fontSize=12;glass=0;strokeWidth=1;shadow=0;fillColor=#e1d5e7;strokeColor=#9673a6;" vertex="1" parent="WIyWlLk6GJQsqaUBKTNV-1">
          <mxGeometry x="510" y="290" width="80" height="30" as="geometry" />
        </mxCell>
        <mxCell id="-YvK7WObfdjW18Db9y_9-32" value="recipe" style="rhombus;whiteSpace=wrap;html=1;shadow=0;fontFamily=Helvetica;fontSize=12;align=center;strokeWidth=1;spacing=6;spacingTop=-4;fillColor=#f8cecc;strokeColor=#b85450;" vertex="1" parent="WIyWlLk6GJQsqaUBKTNV-1">
          <mxGeometry x="130" y="460" width="70" height="60" as="geometry" />
        </mxCell>
        <mxCell id="-YvK7WObfdjW18Db9y_9-36" value="favouriteToggle" style="rhombus;whiteSpace=wrap;html=1;shadow=0;fontFamily=Helvetica;fontSize=12;align=center;strokeWidth=1;spacing=6;spacingTop=-4;fillColor=#f8cecc;strokeColor=#b85450;" vertex="1" parent="WIyWlLk6GJQsqaUBKTNV-1">
          <mxGeometry x="191.25" y="480" width="98.75" height="90" as="geometry" />
        </mxCell>
        <mxCell id="-YvK7WObfdjW18Db9y_9-38" value="favouriteToggle" style="rhombus;whiteSpace=wrap;html=1;shadow=0;fontFamily=Helvetica;fontSize=12;align=center;strokeWidth=1;spacing=6;spacingTop=-4;fillColor=#f8cecc;strokeColor=#b85450;" vertex="1" parent="WIyWlLk6GJQsqaUBKTNV-1">
          <mxGeometry x="-50" y="475" width="98.75" height="90" as="geometry" />
        </mxCell>
        <mxCell id="-YvK7WObfdjW18Db9y_9-41" value="ratingModal" style="rhombus;whiteSpace=wrap;html=1;shadow=0;fontFamily=Helvetica;fontSize=12;align=center;strokeWidth=1;spacing=6;spacingTop=-4;fillColor=#f8cecc;strokeColor=#b85450;" vertex="1" parent="WIyWlLk6GJQsqaUBKTNV-1">
          <mxGeometry x="-160" y="370" width="80" height="80" as="geometry" />
        </mxCell>
        <mxCell id="-YvK7WObfdjW18Db9y_9-43" value="createRecipe" style="rhombus;whiteSpace=wrap;html=1;shadow=0;fontFamily=Helvetica;fontSize=12;align=center;strokeWidth=1;spacing=6;spacingTop=-4;fillColor=#f8cecc;strokeColor=#b85450;" vertex="1" parent="WIyWlLk6GJQsqaUBKTNV-1">
          <mxGeometry x="65.63" y="350" width="88.75" height="90" as="geometry" />
        </mxCell>
        <mxCell id="-YvK7WObfdjW18Db9y_9-45" value="signup" style="rhombus;whiteSpace=wrap;html=1;shadow=0;fontFamily=Helvetica;fontSize=12;align=center;strokeWidth=1;spacing=6;spacingTop=-4;fillColor=#f8cecc;strokeColor=#b85450;" vertex="1" parent="WIyWlLk6GJQsqaUBKTNV-1">
          <mxGeometry x="295" y="350" width="70" height="60" as="geometry" />
        </mxCell>
        <mxCell id="-YvK7WObfdjW18Db9y_9-47" value="login" style="rhombus;whiteSpace=wrap;html=1;shadow=0;fontFamily=Helvetica;fontSize=12;align=center;strokeWidth=1;spacing=6;spacingTop=-4;fillColor=#f8cecc;strokeColor=#b85450;" vertex="1" parent="WIyWlLk6GJQsqaUBKTNV-1">
          <mxGeometry x="405" y="350" width="70" height="60" as="geometry" />
        </mxCell>
        <mxCell id="-YvK7WObfdjW18Db9y_9-49" value="editRecipe" style="rhombus;whiteSpace=wrap;html=1;shadow=0;fontFamily=Helvetica;fontSize=12;align=center;strokeWidth=1;spacing=6;spacingTop=-4;fillColor=#f8cecc;strokeColor=#b85450;" vertex="1" parent="WIyWlLk6GJQsqaUBKTNV-1">
          <mxGeometry x="512.5" y="355" width="75" height="65" as="geometry" />
        </mxCell>
        <mxCell id="-YvK7WObfdjW18Db9y_9-55" value="" style="edgeStyle=orthogonalEdgeStyle;rounded=0;orthogonalLoop=1;jettySize=auto;html=1;" edge="1" parent="WIyWlLk6GJQsqaUBKTNV-1" source="-YvK7WObfdjW18Db9y_9-53" target="-YvK7WObfdjW18Db9y_9-38">
          <mxGeometry relative="1" as="geometry" />
        </mxCell>
        <mxCell id="-YvK7WObfdjW18Db9y_9-53" value="singleRecipe" style="rhombus;whiteSpace=wrap;html=1;shadow=0;fontFamily=Helvetica;fontSize=12;align=center;strokeWidth=1;spacing=6;spacingTop=-4;fillColor=#f8cecc;strokeColor=#b85450;" vertex="1" parent="WIyWlLk6GJQsqaUBKTNV-1">
          <mxGeometry x="-41.559999999999995" y="370" width="83.12" height="80" as="geometry" />
        </mxCell>
        <mxCell id="-YvK7WObfdjW18Db9y_9-63" value="" style="edgeStyle=orthogonalEdgeStyle;rounded=0;orthogonalLoop=1;jettySize=auto;html=1;" edge="1" parent="WIyWlLk6GJQsqaUBKTNV-1" source="-YvK7WObfdjW18Db9y_9-57" target="-YvK7WObfdjW18Db9y_9-32">
          <mxGeometry relative="1" as="geometry">
            <Array as="points">
              <mxPoint x="210" y="435" />
              <mxPoint x="165" y="435" />
            </Array>
          </mxGeometry>
        </mxCell>
        <mxCell id="-YvK7WObfdjW18Db9y_9-65" value="" style="edgeStyle=orthogonalEdgeStyle;rounded=0;orthogonalLoop=1;jettySize=auto;html=1;" edge="1" parent="WIyWlLk6GJQsqaUBKTNV-1" source="-YvK7WObfdjW18Db9y_9-57" target="-YvK7WObfdjW18Db9y_9-36">
          <mxGeometry relative="1" as="geometry">
            <Array as="points">
              <mxPoint x="240" y="450" />
              <mxPoint x="240" y="450" />
            </Array>
          </mxGeometry>
        </mxCell>
        <mxCell id="-YvK7WObfdjW18Db9y_9-57" value="home" style="rhombus;whiteSpace=wrap;html=1;shadow=0;fontFamily=Helvetica;fontSize=12;align=center;strokeWidth=1;spacing=6;spacingTop=-4;fillColor=#f8cecc;strokeColor=#b85450;" vertex="1" parent="WIyWlLk6GJQsqaUBKTNV-1">
          <mxGeometry x="185" y="360" width="70" height="60" as="geometry" />
        </mxCell>
        <mxCell id="-YvK7WObfdjW18Db9y_9-59" value="" style="edgeStyle=orthogonalEdgeStyle;rounded=0;orthogonalLoop=1;jettySize=auto;html=1;" edge="1" parent="WIyWlLk6GJQsqaUBKTNV-1">
          <mxGeometry relative="1" as="geometry">
            <mxPoint x="-41.559999999999945" y="410" as="sourcePoint" />
            <mxPoint x="-80" y="410" as="targetPoint" />
          </mxGeometry>
        </mxCell>
      </root>
    </mxGraphModel>
  </diagram>
</mxfile>
